<svg width="14" height="12" fill="none" xmlns="http://www.w3.org/2000/svg"><g clip-path="url(#a)" fill="#36D7FF"><path d="M14 6c0-.923-1.488-1.605-3.47-1.973.162-.45.295-.888.387-1.295.307-1.361.159-2.289-.417-2.611A.988.988 0 0010.011 0c-.786 0-1.884.77-3.01 2.037C5.873.769 4.775 0 3.988 0a.99.99 0 00-.49.12c-.824.462-.688 2.056-.024 3.907C1.491 4.393 0 5.077 0 6s1.489 1.605 3.47 1.973c-.162.451-.295.887-.387 1.295-.307 1.362-.159 2.289.417 2.611.143.08.307.12.489.12.787 0 1.885-.769 3.011-2.036C8.127 11.23 9.224 12 10.011 12c.182 0 .347-.04.489-.12.576-.323.724-1.25.417-2.612a11.15 11.15 0 00-.387-1.295C12.512 7.605 14 6.923 14 6zM10.011.35c.118 0 .222.026.308.075.422.236.511 1.05.245 2.232-.093.41-.228.85-.394 1.307a19.18 19.18 0 00-1.834-.202A17.73 17.73 0 007.24 2.313C8.3 1.11 9.33.351 10.01.351zM8.724 6.966c-.193.323-.391.636-.594.937a22.935 22.935 0 01-2.26 0 21.273 21.273 0 01-1.133-1.898 20.197 20.197 0 011.134-1.906 23.072 23.072 0 012.259 0A20.37 20.37 0 019.26 6c-.168.32-.346.643-.537.965zm.736-.574c.222.448.42.89.588 1.32-.455.07-.946.125-1.468.163a20.558 20.558 0 00.88-1.483zM7.88 8.262c-.29.41-.585.795-.88 1.147-.296-.352-.592-.737-.882-1.147a21.659 21.659 0 001.762 0zm-2.46-.388a18.059 18.059 0 01-1.469-.163c.169-.429.366-.871.588-1.32a20.498 20.498 0 00.88 1.483zm-.883-2.261c-.229-.46-.426-.904-.591-1.323.456-.07.95-.126 1.474-.164-.155.237-.308.482-.458.734-.149.25-.289.502-.425.753zM6.12 3.738c.29-.41.585-.795.88-1.147.296.352.592.737.881 1.147a20.92 20.92 0 00-1.761 0zM9.037 4.86c-.15-.253-.303-.497-.457-.734a18.44 18.44 0 011.468.163c-.168.429-.366.872-.588 1.32-.135-.25-.275-.5-.423-.75zM3.68.425A.62.62 0 013.99.35c.68 0 1.71.76 2.772 1.962-.368.436-.737.921-1.097 1.449-.634.04-1.255.109-1.84.204C3.14 2.093 3.119.739 3.68.425zM.361 6c0-.63 1.22-1.289 3.234-1.651.209.54.458 1.096.74 1.648a17.418 17.418 0 00-.746 1.652C1.578 7.288.362 6.63.362 6zm3.628 5.649a.62.62 0 01-.308-.073c-.422-.237-.511-1.05-.244-2.233.092-.41.227-.85.394-1.307a19.15 19.15 0 001.833.202c.36.527.729 1.013 1.096 1.449-1.06 1.203-2.09 1.962-2.771 1.962zm6.574-2.306c.267 1.183.178 1.996-.244 2.233a.63.63 0 01-.308.073c-.68 0-1.71-.76-2.771-1.962.368-.436.736-.922 1.097-1.45a19.14 19.14 0 001.833-.202c.166.457.301.898.393 1.308zm-.152-1.693A17.36 17.36 0 009.668 6a17.49 17.49 0 00.744-1.65c2.01.362 3.226 1.022 3.226 1.65 0 .629-1.216 1.288-3.227 1.65z"/><path d="M7 6.746A.758.758 0 007.77 6 .758.758 0 007 5.254.758.758 0 006.231 6c0 .412.345.746.77.746z"/></g><defs><clipPath id="a"><path fill="#fff" d="M0 0H14V12H0z"/></clipPath></defs></svg>