<svg width="56" height="44" fill="none" xmlns="http://www.w3.org/2000/svg"><path d="M53.281 10.709L36.783 34.946c-2.986 4.387-4.48 6.58-6.336 7.388a7 7 0 01-5.552.012c-1.86-.799-3.364-2.986-6.37-7.36L2.11 11.098a6.314 6.314 0 01-.042-7.09C4.544.311 9.965.268 12.502 3.923l6.095 8.785h0c2.988 4.307 4.481 6.46 6.329 7.252a7 7 0 005.516 0c1.847-.792 3.341-2.945 6.33-7.252l6.269-9.037c2.471-3.561 7.738-3.561 10.21 0a6.213 6.213 0 01.03 7.038z" fill="#020913" stroke="url(#a)" stroke-width="2"/><defs><linearGradient id="a" x1="-.316" y1="22.314" x2="55.684" y2="22.314" gradientUnits="userSpaceOnUse"><stop stop-color="#6FAFB5"/><stop offset="1" stop-color="#7590C2"/></linearGradient></defs></svg>